<svg width="25" height="25" viewBox="0 0 25 25" fill="none" xmlns="http://www.w3.org/2000/svg">
<g clip-path="url(#clip0_12_121)">
<path fill-rule="evenodd" clip-rule="evenodd" d="M12.5 2.08333C6.74703 2.08333 2.08333 6.74703 2.08333 12.5C2.08333 18.253 6.74703 22.9167 12.5 22.9167C18.253 22.9167 22.9167 18.253 22.9167 12.5C22.9167 6.74703 18.253 2.08333 12.5 2.08333ZM0 12.5C0 5.59646 5.59646 0 12.5 0C19.4035 0 25 5.59646 25 12.5C25 19.4035 19.4035 25 12.5 25C5.59646 25 0 19.4035 0 12.5Z" fill="#797979"/>
<path fill-rule="evenodd" clip-rule="evenodd" d="M9.9913 23.6831C9.89052 23.5531 9.89052 22.3944 9.9913 20.2073C8.91219 20.2446 8.23042 20.1697 7.94599 19.9827C7.51927 19.7021 7.09213 18.8368 6.71307 18.227C6.33406 17.6172 5.49286 17.5208 5.15315 17.3845C4.81345 17.2482 4.72817 16.6925 6.08922 17.1128C7.45021 17.533 7.51661 18.6775 7.94599 18.9451C8.37531 19.2127 9.40182 19.0956 9.86708 18.8812C10.3324 18.6668 10.2981 17.8687 10.3811 17.5525C10.486 17.2573 10.1163 17.1918 10.1082 17.1894C9.6539 17.1894 7.26765 16.6705 6.61224 14.3597C5.95677 12.049 6.80109 10.5386 7.25151 9.88933C7.55182 9.45647 7.52526 8.53397 7.17182 7.12173C8.45495 6.95777 9.44515 7.36162 10.1424 8.33339C10.1431 8.33896 11.0565 7.79022 12.5002 7.79022C13.9437 7.79022 14.4559 8.23719 14.8511 8.33339C15.2464 8.42959 15.5625 6.63235 18.0035 7.12173C17.4939 8.12339 17.0671 9.37506 17.3929 9.88933C17.7186 10.4036 18.9971 12.0389 18.2118 14.3597C17.6882 15.9069 16.659 16.8502 15.1242 17.1894C14.9482 17.2456 14.8602 17.3362 14.8602 17.4612C14.8602 17.6488 15.0981 17.6692 15.4409 18.5478C15.6694 19.1334 15.6859 20.8063 15.4904 23.5662C14.9951 23.6922 14.6098 23.7769 14.3344 23.8202C13.8462 23.8969 13.3161 23.9399 12.7953 23.9565C12.2744 23.9731 12.0935 23.9713 11.3734 23.9042C10.8934 23.8595 10.4327 23.7858 9.9913 23.6831Z" fill="#797979"/>
</g>
<defs>
<clipPath id="clip0_12_121">
<rect width="25" height="25" fill="white"/>
</clipPath>
</defs>
</svg>
