<svg width="30" height="30" viewBox="0 0 30 30" fill="none" xmlns="http://www.w3.org/2000/svg">
<path d="M8.75 21.25V12.5M26.25 10V20C26.25 21.6576 25.5915 23.2473 24.4194 24.4194C23.2473 25.5915 21.6576 26.25 20 26.25H10C8.3424 26.25 6.75269 25.5915 5.58058 24.4194C4.40848 23.2473 3.75 21.6576 3.75 20V10C3.75 8.3424 4.40848 6.75269 5.58058 5.58058C6.75269 4.40848 8.3424 3.75 10 3.75H20C21.6576 3.75 23.2473 4.40848 24.4194 5.58058C25.5915 6.75269 26.25 8.3424 26.25 10Z" stroke="#7A7A7A" stroke-width="1.5" stroke-linecap="round" stroke-linejoin="round"/>
<path d="M13.75 21.25V17.1875M13.75 17.1875V12.5M13.75 17.1875C13.75 12.5 21.25 12.5 21.25 17.1875V21.25M8.75 8.7625L8.7625 8.74875" stroke="#7A7A7A" stroke-width="1.5" stroke-linecap="round" stroke-linejoin="round"/>
</svg>
