<svg width="30" height="30" viewBox="0 0 30 30" fill="none" xmlns="http://www.w3.org/2000/svg">
<path d="M14.9925 2.5C12.5202 2.5 10.1035 3.23311 8.04787 4.60663C5.99226 5.98015 4.3901 7.93238 3.444 10.2165C2.49791 12.5005 2.25037 15.0139 2.73268 17.4386C3.215 19.8634 4.40551 22.0907 6.15366 23.8388C7.90182 25.587 10.1291 26.7775 12.5539 27.2598C14.9786 27.7421 17.492 27.4946 19.776 26.5485C22.0601 25.6024 24.0124 24.0002 25.3859 21.9446C26.7594 19.889 27.4925 17.4723 27.4925 15C27.4925 13.3585 27.1692 11.733 26.541 10.2165C25.9128 8.69989 24.9921 7.3219 23.8313 6.16117C22.6706 5.00043 21.2926 4.07969 19.776 3.45151C18.2595 2.82332 16.634 2.5 14.9925 2.5ZM18.9675 21.44C18.9209 21.5568 18.8498 21.6622 18.759 21.7492C18.6682 21.8363 18.5598 21.9029 18.4412 21.9445C18.3226 21.9862 18.1964 22.002 18.0711 21.9909C17.9459 21.9798 17.8244 21.9419 17.715 21.88L14.3212 19.2425L12.1437 21.2525C12.0932 21.2898 12.0341 21.3138 11.9718 21.3224C11.9096 21.3309 11.8462 21.3236 11.7875 21.3013L12.205 17.565L12.2175 17.5763L12.2262 17.5025C12.2262 17.5025 18.3325 11.9425 18.5812 11.7062C18.8337 11.47 18.75 11.4188 18.75 11.4188C18.765 11.1313 18.2987 11.4188 18.2987 11.4188L10.2075 16.6237L6.83875 15.4762C6.83875 15.4762 6.32125 15.2913 6.2725 14.8825C6.22125 14.4775 6.855 14.2575 6.855 14.2575L20.2512 8.935C20.2512 8.935 21.3525 8.445 21.3525 9.2575L18.9675 21.44Z" fill="#7A7A7A"/>
</svg>
