<svg width="30" height="30" viewBox="0 0 30 30" fill="none" xmlns="http://www.w3.org/2000/svg">
<path d="M7.32 8.55C7.1772 8.47298 7.01685 8.43435 6.85464 8.43787C6.69243 8.4414 6.53391 8.48696 6.39459 8.5701C6.25526 8.65324 6.1399 8.77112 6.05978 8.9122C5.97966 9.05329 5.93753 9.21275 5.9375 9.375V21.25C5.9375 21.4986 6.03627 21.7371 6.21209 21.9129C6.3879 22.0887 6.62636 22.1875 6.875 22.1875C7.12364 22.1875 7.3621 22.0887 7.53791 21.9129C7.71373 21.7371 7.8125 21.4986 7.8125 21.25V10.945L14.555 14.575C14.8325 14.725 15.1675 14.725 15.445 14.575L22.1875 10.945V21.25C22.1875 21.4986 22.2863 21.7371 22.4621 21.9129C22.6379 22.0887 22.8764 22.1875 23.125 22.1875C23.3736 22.1875 23.6121 22.0887 23.7879 21.9129C23.9637 21.7371 24.0625 21.4986 24.0625 21.25V9.375C24.0625 9.21275 24.0203 9.05329 23.9402 8.9122C23.8601 8.77112 23.7447 8.65324 23.6054 8.5701C23.4661 8.48696 23.3076 8.4414 23.1454 8.43787C22.9832 8.43435 22.8228 8.47298 22.68 8.55L15 12.685L7.32 8.55Z" fill="#797979"/>
<path fill-rule="evenodd" clip-rule="evenodd" d="M21.6375 4.65249C17.2213 4.25768 12.7787 4.25768 8.36252 4.65249L6.46501 4.82124C5.47663 4.9095 4.54684 5.32835 3.82582 6.01013C3.1048 6.69191 2.63463 7.59683 2.49127 8.57874C1.86867 12.8369 1.86867 17.163 2.49127 21.4212C2.63495 22.4031 3.1054 23.3079 3.82665 23.9895C4.5479 24.671 5.47784 25.0896 6.46626 25.1775L8.36127 25.3475C12.7788 25.7425 17.2213 25.7425 21.6388 25.3475L23.535 25.1775C24.5232 25.0893 25.4529 24.6706 26.1739 23.9891C26.8949 23.3076 27.3651 22.4029 27.5088 21.4212C28.1314 17.163 28.1314 12.8369 27.5088 8.57874C27.3653 7.59664 26.895 6.69157 26.1737 6.00977C25.4525 5.32796 24.5224 4.90924 23.5338 4.82124L21.6375 4.65249ZM8.53001 6.51999C12.8356 6.13503 17.1669 6.13503 21.4725 6.51999L23.3688 6.68999C23.9372 6.74048 24.4721 6.98113 24.8869 7.37306C25.3017 7.76499 25.5724 8.28531 25.655 8.84999C26.2514 12.9283 26.2514 17.0717 25.655 21.15C25.5724 21.7147 25.3017 22.235 24.8869 22.6269C24.4721 23.0189 23.9372 23.2595 23.3688 23.31L21.4725 23.48C17.1675 23.865 12.835 23.865 8.53001 23.48L6.63377 23.31C6.0653 23.2595 5.53046 23.0189 5.11562 22.6269C4.70078 22.235 4.43018 21.7147 4.34751 21.15C3.75122 17.0717 3.75122 12.9283 4.34751 8.84999C4.43018 8.28531 4.70078 7.76499 5.11562 7.37306C5.53046 6.98113 6.0653 6.74048 6.63377 6.68999L8.53001 6.51999Z" fill="#797979"/>
</svg>
